<svg fill="#0F0A14" viewBox="0 0 76.13 18.86" height="100%" width="100%" xmlns="http://www.w3.org/2000/svg"><path preserveAspectRatio="none" d="M4.12 18.63L0 18.63L0 0L5.13 0Q7.01 0 8.39 0.41Q9.77 0.83 10.55 1.90Q11.32 2.97 11.32 4.92L11.32 4.92Q11.32 6.07 11.13 6.97Q10.95 7.87 10.45 8.52Q9.96 9.18 9.04 9.61L9.04 9.61L11.59 18.63L7.34 18.63L5.29 10.28L4.12 10.28L4.12 18.63ZM4.12 2.76L4.12 7.91L5.27 7.91Q6.14 7.91 6.62 7.60Q7.11 7.29 7.30 6.70Q7.50 6.12 7.50 5.29L7.50 5.29Q7.50 4.09 7.06 3.43Q6.62 2.76 5.45 2.76L5.45 2.76L4.12 2.76ZM17.48 18.86L17.48 18.86Q16.03 18.86 15.00 18.34Q13.96 17.82 13.41 16.82Q12.86 15.82 12.86 14.42L12.86 14.42L12.86 9.54Q12.86 8.12 13.41 7.13Q13.96 6.14 15.01 5.62Q16.05 5.11 17.48 5.11L17.48 5.11Q18.95 5.11 19.93 5.61Q20.91 6.12 21.40 7.11Q21.90 8.10 21.90 9.54L21.90 9.54L21.90 12.21L16.56 12.21L16.56 14.77Q16.56 15.27 16.67 15.59Q16.79 15.92 17.00 16.05Q17.20 16.19 17.48 16.19L17.48 16.19Q17.76 16.19 17.97 16.07Q18.19 15.94 18.32 15.66Q18.45 15.39 18.45 14.90L18.45 14.90L18.45 13.50L21.90 13.50L21.90 14.79Q21.90 16.81 20.72 17.84Q19.55 18.86 17.48 18.86ZM16.56 9.34L16.56 10.46L18.45 10.46L18.45 9.13Q18.45 8.60 18.32 8.30Q18.19 8.00 17.97 7.89Q17.76 7.77 17.46 7.77L17.46 7.77Q17.18 7.77 16.99 7.91Q16.79 8.05 16.67 8.38Q16.56 8.72 16.56 9.34L16.56 9.34ZM28.11 18.77L28.11 18.77Q26.61 18.77 25.81 18.33Q25.00 17.89 24.69 17.05Q24.38 16.21 24.38 15.02L24.38 15.02L24.38 7.80L23.09 7.80L23.09 5.34L24.38 5.34L24.38 1.29L28.17 1.29L28.17 5.34L30.06 5.34L30.06 7.80L28.17 7.80L28.17 14.65Q28.17 15.23 28.51 15.48Q28.84 15.73 29.35 15.73L29.35 15.73Q29.65 15.73 29.90 15.70Q30.15 15.66 30.36 15.64L30.36 15.64L30.36 18.58Q30.06 18.63 29.42 18.70Q28.77 18.77 28.11 18.77ZM35.81 18.63L32.06 18.63L32.06 5.34L35.81 5.34L35.81 7.54Q36.45 6.39 37.10 5.78Q37.74 5.17 38.66 5.17L38.66 5.17Q38.85 5.17 38.98 5.19Q39.12 5.20 39.24 5.24L39.24 5.24L39.24 8.97Q38.98 8.85 38.67 8.77Q38.36 8.69 38.02 8.69L38.02 8.69Q37.38 8.69 36.82 9.04Q36.27 9.38 35.81 9.98L35.81 9.98L35.81 18.63ZM45.17 18.86L45.17 18.86Q43.75 18.86 42.70 18.38Q41.65 17.89 41.09 16.93Q40.53 15.96 40.53 14.51L40.53 14.51L40.53 9.45Q40.53 8.00 41.09 7.04Q41.65 6.07 42.70 5.59Q43.75 5.11 45.17 5.11L45.17 5.11Q46.60 5.11 47.64 5.59Q48.69 6.07 49.27 7.04Q49.84 8.00 49.84 9.45L49.84 9.45L49.84 14.51Q49.84 15.96 49.27 16.93Q48.69 17.89 47.64 18.38Q46.60 18.86 45.17 18.86ZM45.19 16.38L45.19 16.38Q45.56 16.38 45.77 16.18Q45.98 15.98 46.06 15.63Q46.14 15.27 46.14 14.77L46.14 14.77L46.14 9.20Q46.14 8.69 46.06 8.34Q45.98 7.98 45.77 7.79Q45.56 7.59 45.19 7.59L45.19 7.59Q44.83 7.59 44.62 7.79Q44.41 7.98 44.32 8.34Q44.23 8.69 44.23 9.20L44.23 9.20L44.23 14.77Q44.23 15.27 44.32 15.63Q44.41 15.98 44.62 16.18Q44.83 16.38 45.19 16.38ZM58.51 18.86L58.51 18.86Q57.78 18.86 57.05 18.53Q56.33 18.19 55.66 17.62L55.66 17.62L55.66 18.63L51.91 18.63L51.91 0L55.66 0L55.66 6.30Q56.35 5.70 57.10 5.40Q57.84 5.11 58.56 5.11L58.56 5.11Q59.32 5.11 59.86 5.40Q60.40 5.70 60.74 6.24Q61.09 6.78 61.25 7.50Q61.41 8.21 61.41 9.02L61.41 9.02L61.41 14.74Q61.41 15.98 61.08 16.90Q60.74 17.82 60.10 18.34Q59.45 18.86 58.51 18.86ZM56.69 16.45L56.69 16.45Q57.06 16.45 57.27 16.24Q57.48 16.03 57.57 15.70Q57.66 15.36 57.66 14.95L57.66 14.95L57.66 8.74Q57.66 8.35 57.57 8.04Q57.48 7.73 57.28 7.54Q57.09 7.36 56.74 7.36L56.74 7.36Q56.44 7.36 56.18 7.49Q55.91 7.61 55.66 7.80L55.66 7.80L55.66 16.08Q55.91 16.24 56.18 16.34Q56.44 16.45 56.69 16.45ZM67.34 18.63L63.59 18.63L63.59 5.34L67.34 5.34L67.34 7.54Q67.99 6.39 68.63 5.78Q69.28 5.17 70.20 5.17L70.20 5.17Q70.38 5.17 70.52 5.19Q70.66 5.20 70.77 5.24L70.77 5.24L70.77 8.97Q70.52 8.85 70.21 8.77Q69.90 8.69 69.55 8.69L69.55 8.69Q68.91 8.69 68.36 9.04Q67.80 9.38 67.34 9.98L67.34 9.98L67.34 18.63ZM76.13 18.63L72.38 18.63L72.38 5.34L76.13 5.34L76.13 18.63ZM76.13 3.08L72.36 3.08L72.36 0.48L76.13 0.48L76.13 3.08Z"></path></svg>